<svg height="496pt" viewBox="0 0 496 496" width="496pt" xmlns="http://www.w3.org/2000/svg"><g fill="#f0bc5e"><path d="m224 440h-160v-48h160zm0 0"/><path d="m432 440h-160v-48h160zm0 0"/><path d="m288 100.6875v-36.6875h-48v36.6875l-16 16v43.3125h80v-43.3125zm0 0"/></g><path d="m192 456h-96v-16h-16v56h16v-24h96v24h16v-56h-16zm0 0"/><path d="m400 456h-96v-16h-16v56h16v-24h96v24h16v-56h-16zm0 0"/><path d="m496 0h-352v48h336v104h-40v-16h-48v16h-32v-24h14.777344l10.671875-64h-66.890625l10.671875 64h14.769531v24h-136v48h182.734375c-1.359375 3.742188-3.757813 7.0625-7.175781 9.34375-9.734375 6.488281-15.558594 17.359375-15.558594 29.082031v65.574219h-40v-24h14.777344l10.671875-64h-66.890625l10.671875 64h14.769531v24h-72v-56.191406c0-17.808594-11.457031-33.199219-28.503906-38.3125l-51.496094-15.449219v-12.160156c14.488281-10.132813 24-26.910157 24-45.886719v-24c0-30.878906-25.128906-56-56-56s-56 25.121094-56 56v24c0 18.976562 9.511719 35.761719 24 45.886719v12.160156l-51.496094 15.449219c-17.046875 5.113281-28.503906 20.503906-28.503906 38.3125v56.191406h-16v48h16v144h16v-144h432v144h16v-144h16zm-158.550781 80h29.109375l-5.328125 32h-18.453125zm-32 152h29.109375l-5.328125 32h-18.453125zm-145.449219-200v-16h320v16zm320 136v16h-40v-16zm-56-16v16h-16v-16zm-200 16h168v16h-168zm160 70.425781c0-6.355469 3.160156-12.25 8.441406-15.769531 9.734375-6.488281 15.558594-17.359375 15.558594-29.082031v-9.574219h16v9.574219c0 11.714843 5.824219 22.585937 15.558594 29.082031 5.28125 3.519531 8.441406 9.414062 8.441406 15.769531v65.574219h-64zm-296-102.425781v-24c0-22.054688 17.945312-40 40-40s40 17.945312 40 40v24c0 22.054688-17.945312 40-40 40s-40-17.945312-40-40zm-56 111.808594c0-10.679688 6.871094-19.921875 17.105469-22.984375l62.894531-18.871094v-16.3125c5.070312 1.519531 10.441406 2.359375 16 2.359375s10.929688-.839844 16-2.359375v16.3125l62.894531 18.871094c10.234375 3.0625 17.105469 12.304687 17.105469 22.984375v56.191406h-32v-40h-16v40h-96v-40h-16v40h-32zm448 88.191406h-464v-16h464zm-16-32v-65.574219c0-11.714843-5.824219-22.585937-15.558594-29.082031-3.417968-2.28125-5.816406-5.601562-7.175781-9.34375h38.734375v104zm0 0"/><path d="m151.425781 257.230469-23.425781-15.613281-23.425781 15.613281-9.421875-4.710938c-9.34375-4.671875-15.152344-14.0625-15.152344-24.519531s5.808594-19.847656 15.160156-24.519531l9.425782-4.710938 23.414062 15.613281 23.425781-15.613281 9.421875 4.710938c9.34375 4.671875 15.152344 14.0625 15.152344 24.519531s-5.808594 19.847656-15.160156 24.519531zm0 0" fill="#f0bc5e"/></svg>